<?xml version="1.0" encoding="UTF-8" standalone="no"?>
<svg
   xmlns:dc="http://purl.org/dc/elements/1.1/"
   xmlns:cc="http://creativecommons.org/ns#"
   xmlns:rdf="http://www.w3.org/1999/02/22-rdf-syntax-ns#"
   xmlns:svg="http://www.w3.org/2000/svg"
   xmlns="http://www.w3.org/2000/svg"
   xmlns:xlink="http://www.w3.org/1999/xlink"
   xmlns:sodipodi="http://sodipodi.sourceforge.net/DTD/sodipodi-0.dtd"
   xmlns:inkscape="http://www.inkscape.org/namespaces/inkscape"
   version="1.0"
   width="966.49896"
   height="112.66542"
   id="svg2"
   inkscape:version="0.48.4 r9939"
   sodipodi:docname="Free_Software_Foundation_logo_and_wordmark.svg">
  <metadata
     id="metadata32">
    <rdf:RDF>
      <cc:Work
         rdf:about="">
        <dc:format>image/svg+xml</dc:format>
        <dc:type
           rdf:resource="http://purl.org/dc/dcmitype/StillImage" />
      </cc:Work>
    </rdf:RDF>
  </metadata>
  <sodipodi:namedview
     pagecolor="#ffffff"
     bordercolor="#666666"
     borderopacity="1"
     objecttolerance="10"
     gridtolerance="10"
     guidetolerance="10"
     inkscape:pageopacity="0"
     inkscape:pageshadow="2"
     inkscape:window-width="1600"
     inkscape:window-height="876"
     id="namedview30"
     showgrid="false"
     fit-margin-top="0"
     fit-margin-left="0"
     fit-margin-right="0"
     fit-margin-bottom="0"
     inkscape:zoom="0.11679201"
     inkscape:cx="4295.2185"
     inkscape:cy="-1125.1519"
     inkscape:window-x="0"
     inkscape:window-y="24"
     inkscape:window-maximized="1"
     inkscape:current-layer="svg2" />
  <defs
     id="defs59" />
  <path
     d="m 214.36046,3.3675421 c 0.24459,0.1222954 -0.30617,2.9376552 -17.50506,3.5497024 -1.04251,0.036489 -11.2717,0.7232247 -12.36352,0.7346276 -11.3233,0.1222954 -24.72734,1.9587219 -34.27521,4.2230399 -11.331,2.687363 -24.54375,6.855099 -31.8886,11.629466 -3.02403,1.965848 -8.0638,5.558026 -9.36458,9.058411 -1.77485,4.774082 3.24411,8.874541 6.42664,9.364578 4.73588,0.728641 10.41079,-0.130277 15.24046,-0.734628 2.93794,-0.367456 7.37164,-1.319878 9.97662,-1.53026 2.2646,-0.183586 4.09276,0.0459 6.42664,0.428462 4.10074,0.673622 8.81382,4.162034 10.52738,8.079193 1.81875,4.158329 1.27769,8.741128 -0.48947,12.547394 -1.59155,3.427407 -5.35192,6.766727 -8.87482,9.180707 -3.3054,2.264888 -8.16899,4.483594 -12.24151,6.243337 -9.05842,3.917159 -18.97375,6.610223 -28.56411,9.670174 -3.83448,1.224379 -13.055956,3.366972 -20.767978,4.896662 -4.863594,0.964109 -9.982041,1.87092 -14.811711,2.571054 -8.44665,1.223809 -17.152999,2.241227 -25.522965,3.060236 -4.332507,0.420764 -11.329001,1.021409 -11.395993,-1.006015 0,0 -10.262551,2.963881 -10.262551,2.963881 0.149092,1.775706 4.969926,2.905446 11.704725,2.789986 26.689759,-0.43559 112.848433,-3.718176 131.843273,-29.233444 2.03513,-2.742096 4.16175,-9.398501 4.23274,-16.658971 l -8.21004,-18.472592 c -5.12358,-3.915448 -13.2347,-7.675818 -26.99849,-3.749252 -6.9258,1.977822 -21.04935,7.845721 -23.54885,5.178027 -2.35868,-2.515465 -0.40024,-6.457425 17.74195,-14.924884 4.58679,-2.134611 22.33644,-9.59406 53.97617,-12.581603 l 0.47436,-0.0097 c 19.92246,-1.1494061 27.2465,-1.7369371 31.33756,-3.0354349 1.31588,-0.4170587 5.57741,-2.7848572 5.20026,-4.8293855 -0.16221,-0.9222042 -2.21443,-2.15969681 -4.08564,-1.85153521 -4.64181,0.73234701 -6.90869,0.58724601 -39.79674,0.34237011 -7.76961,-0.055589 -8.75653,-0.26967704 -27.80297,-0.025086 -17.25619,0.2123777 -37.22084,1.9430429 -54.23045,10.8563535 0,0 -15.901538,10.29904 -15.901538,10.29904 -3.854443,4.106731 -7.071753,9.041307 -8.223154,13.884091 -1.151401,4.842784 -0.0573,0.947006 -0.0573,0.947006 0,0 9.81442,17.060921 9.81442,17.060921 0.306166,0 1.916246,0.543345 3.421136,1.231506 2.228684,1.017703 5.797201,2.188489 8.201773,2.693349 3.488697,0.734628 7.099973,1.836427 9.793043,0.550757 1.43618,-0.68417 4.5292,-3.549702 4.34562,-5.263263 -0.20269,-1.888025 -3.4237,-2.415976 -5.38613,-2.815645 -3.305114,-0.673338 -8.463756,-0.325266 -12.669691,-0.979219 -4.632402,-0.717523 -8.367685,-2.39488 -10.037916,-6.181761 -1.54936,-3.51749 -0.428176,-7.712307 1.897717,-11.384305 2.048234,-3.23641 4.335643,-5.881582 7.344566,-8.263064 5.875595,-4.651786 13.360414,-8.60686 20.871464,-11.751476 7.89532,-3.3051116 17.44348,-6.1817616 26.68548,-7.0386846 9.1465,-0.8472306 18.97403,-1.1017989 28.33861,-0.856923 7.911,0.2066763 22.34015,0 23.68654,0.1225804 1.34667,0.1222954 25.2989,-1.2126914 25.76784,-0.9792184"
     id="path1"
     style="fill:#b11107"
     inkscape:connector-curvature="0" />
  <path
     d="m 75.25871,36.722543 -75.25871,0 0,18.472592 c 0,0 85.521261,0 85.521261,0 m 12.543118,-43.102714 -77.539277,0 0,10.262551 c 0,0 68.41701,0.03649 68.41701,0.03649 m 70.697578,14.331082 0,18.472592 c 0,0 94.87158,0 94.87158,0 l 0,-18.472592 -94.87158,0 z m 12.77117,32.840449 71.83785,0 0,10.262551 -71.83785,0 0,-10.262551 z"
     id="path2"
     style="fill:#b11107"
     inkscape:connector-curvature="0" />
  <path
     d="m 34.892673,7.9874005 -10.262551,0 0,90.3101635 c 0,0 10.262551,2.85e-4 10.262551,2.85e-4 m 141.623207,-63.627816 0,77.995387 8.21004,0 0,-77.995387 -8.21004,0 z"
     id="path3"
     style="fill:#b11107"
     inkscape:connector-curvature="0" />
  <path
     d="m 306.86453,9.6704588 0,13.0981512 21.66538,0 0,8.324069 -21.66538,0 0,25.461674 -11.01799,0 0,-55.57484952 40.76228,0 0,8.69095532 -29.74429,0"
     id="F"
     style="fill:#b11107"
     inkscape:connector-curvature="0" />
  <path
     d="m 382.54229,56.554353 -16.51986,-22.89119 c -1.66481,0 -3.99384,-0.0841 -6.98423,-0.254283 l 0,23.145473 -11.38288,0 0,-55.4736494 c 0.6186,0 2.99894,-0.0977793 7.14387,-0.29476323 4.14208,-0.1966989 7.48597,-0.29618863 10.0231,-0.29618863 15.73021,0 23.5956,5.46651886 23.5956,16.39556526 0,3.29713 -1.08641,6.29636 -3.25836,9.001113 -2.17509,2.704182 -4.91177,4.607315 -8.21575,5.705408 l 18.33006,24.962515 -12.73126,0 -2.9e-4,0 z M 359.0382,9.6362503 l 0,15.4927457 c 2.03825,0.141396 3.59474,0.210098 4.66946,0.210098 4.61245,0 7.98483,-0.577269 10.12001,-1.734371 2.13518,-1.155393 3.2042,-3.427692 3.2042,-6.81519 0,-2.734969 -1.14598,-4.647795 -3.43795,-5.7342 -2.29197,-1.086405 -5.89812,-1.629465 -10.82129,-1.629465 -1.18875,0 -2.43451,0.070698 -3.73472,0.2103823"
     id="R"
     style="fill:#b11107"
     inkscape:connector-curvature="0" />
  <path
     d="m 412.84532,9.6704588 0,13.0981512 19.95496,0 0,8.324069 -19.95496,0 0,16.770149 28.03387,0 0,8.691525 -39.04901,0 0,-55.57484952 39.04901,0 0,8.69095532 -28.03387,0"
     id="E"
     style="fill:#b11107"
     inkscape:connector-curvature="0" />
  <use
     transform="translate(50.536365,0)"
     id="E2"
     xlink:href="#E"
     x="0"
     y="0"
     width="3390.47"
     height="395.21899" />
  <path
     d="m 527.34974,53.516923 4.05941,-8.836627 c 4.34162,2.77545 8.61484,4.162035 12.81678,4.162035 6.45686,0 9.68671,-2.03113 9.68671,-6.097666 0,-1.889734 -0.76428,-3.697084 -2.28655,-5.418627 -1.52513,-1.721258 -4.66091,-3.655178 -9.41304,-5.801192 -4.75527,-2.146013 -7.95633,-3.909462 -9.60404,-5.294051 -1.64743,-1.384874 -2.91913,-3.030018 -3.8057,-4.936857 -0.88942,-1.907124 -1.33128,-4.005245 -1.33128,-6.292654 0,-4.32253 1.75034,-7.9033046 5.25927,-10.7417552 C 536.23825,1.4210782 540.73666,0 546.22998,0 c 7.15528,0 12.40628,1.2010035 15.76157,3.6015853 l -3.33533,8.5173467 c -3.85131,-2.4484732 -7.91927,-3.6725674 -12.19277,-3.6725674 -2.53114,0 -4.49271,0.6006443 -5.88643,1.7999374 -1.39114,1.201004 -2.08957,2.760056 -2.08957,4.678298 0,3.190513 3.92258,6.509023 11.76773,9.951824 4.13068,1.83215 7.11223,3.507797 8.93954,5.028365 1.83015,1.520568 3.22158,3.301405 4.17914,5.344223 0.95527,2.042533 1.4339,4.316828 1.4339,6.822316 0,4.506685 -1.97839,8.211466 -5.93517,11.111207 -3.95394,2.901166 -9.25625,4.351036 -15.90126,4.351036 -5.77268,0 -10.97807,-1.338122 -15.62188,-4.016363"
     id="S"
     style="fill:#b11107"
     inkscape:connector-curvature="0" />
  <path
     d="m 572.90121,28.32293 c 0,-7.918128 2.41483,-14.618433 7.24964,-20.1003461 C 584.9828,2.7406713 591.44222,0 599.52968,0 c 8.90561,0 15.71025,2.4809717 20.41677,7.4403495 4.70367,4.9613735 7.06149,11.9216635 7.06149,20.8825805 0,8.962913 -2.46044,16.070585 -7.37792,21.326437 -4.91747,5.256421 -11.89857,7.884204 -20.94415,7.884204 -8.31267,0 -14.6897,-2.606688 -19.12826,-7.820919 -4.43598,-5.213661 -6.65669,-12.342428 -6.65669,-21.389722 l 2.9e-4,0 z m 11.38573,0.0402 c 0,6.487928 1.2258,11.52399 3.68311,15.106761 2.45446,3.5822 6.02355,5.372445 10.71582,5.372445 5.50472,0 9.70096,-1.74834 12.59471,-5.246444 2.89319,-3.496109 4.3442,-8.574647 4.3442,-15.232762 0,-13.032869 -5.36789,-19.5495892 -16.0951,-19.5495892 -4.91149,0 -8.68326,1.7637332 -11.30591,5.2906302 -2.6255,3.526897 -3.93683,8.279883 -3.93683,14.258959"
     id="O"
     style="fill:#b11107"
     inkscape:connector-curvature="0" />
  <use
     transform="translate(342.1396,0)"
     id="F2"
     xlink:href="#F"
     x="0"
     y="0"
     width="3390.47"
     height="395.21899" />
  <path
     d="m 716.32606,9.6704588 0,46.8838942 -11.0177,0 0,-46.8838942 -19.70724,0 0,-8.69095532 51.28995,0 0,8.69095532 -20.56501,0"
     id="T"
     style="fill:#b11107"
     inkscape:connector-curvature="0" />
  <path
     d="m 796.48799,57.288981 -4.52978,0 -13.46675,-35.010123 -13.09615,35.010123 -4.52978,0 -20.31985,-56.30947752 11.50546,0 11.56818,33.54086752 12.54597,-33.54086752 4.77493,0 12.54911,33.54086752 11.56817,-33.54086752 11.50518,0 -20.07469,56.30947752"
     id="W"
     style="fill:#b11107"
     inkscape:connector-curvature="0" />
  <path
     d="m 854.46855,56.554353 -4.50127,-11.262009 -21.18618,0 -4.30486,11.262009 -12.24065,0 24.72704,-56.3097622 4.77494,0 24.84963,56.3097622 -12.11865,0 0,0 z M 839.35124,17.2599 l -7.4489,20.443002 14.86616,0 -7.41754,-20.443002"
     id="A"
     style="fill:#b11107"
     inkscape:connector-curvature="0" />
  <use
     transform="translate(525.61993,0)"
     id="R2"
     xlink:href="#R"
     x="0"
     y="0"
     width="3390.47"
     height="395.21899" />
  <use
     transform="translate(525.61978,0)"
     id="E3"
     xlink:href="#E"
     x="0"
     y="0"
     width="3390.47"
     height="395.21899" />
  <path
     d="m 315.03751,82.32761 0,8.875111 13.58933,0 0,3.733003 -13.58933,0 0,15.485616 -5.26241,0 0,-32.072179 23.87184,0 0,3.978449 -18.60943,0"
     id="f"
     style="fill:#b11107"
     inkscape:connector-curvature="0" />
  <path
     d="m 374.74845,94.109588 c 0,-4.659198 1.4054,-8.546139 4.2105,-11.675077 2.8051,-3.129508 6.59084,-4.697683 11.36007,-4.697683 5.36504,0 9.47576,1.44588 12.33502,4.32253 2.85926,2.884632 4.29032,6.900995 4.29032,12.05023 0,5.263834 -1.43391,9.395082 -4.30172,12.386612 -2.86782,2.98384 -6.97569,4.47533 -12.32333,4.47533 -4.87471,0 -8.68896,-1.57559 -11.4399,-4.72819 -2.75378,-3.15944 -4.13067,-7.199175 -4.13067,-12.133752 l -2.9e-4,0 z m 5.57029,-0.0074 c 0,3.695089 0.87231,6.778412 2.61695,9.249692 1.74748,2.47128 4.20764,3.70279 7.38333,3.70279 3.5976,0 6.33998,-1.13259 8.2243,-3.40432 1.88717,-2.26489 2.83075,-5.447702 2.83075,-9.548162 0,-8.293566 -3.68311,-12.447904 -11.05505,-12.447904 -3.26121,0 -5.74417,1.117193 -7.44605,3.343596 -1.70187,2.218137 -2.55423,5.256137 -2.55423,9.104308"
     id="o"
     style="fill:#b11107"
     inkscape:connector-curvature="0" />
  <path
     d="m 451.45247,78.349161 5.26526,0 0,21.972979 c 0,1.95843 0.74688,3.56509 2.24636,4.83537 1.49377,1.26971 3.47501,1.89715 5.94087,1.89715 2.60555,0 4.65806,-0.61177 6.15468,-1.83615 1.49663,-1.21668 2.24351,-2.88406 2.24351,-5.00327 l 0,-21.866079 5.26526,0 0,22.332739 c 0,3.23669 -1.21725,5.76099 -3.65461,7.57433 -2.4345,1.81277 -5.75273,2.7153 -9.95467,2.7153 -4.32738,0 -7.65986,-0.88686 -9.99744,-2.66228 -2.34043,-1.77485 -3.50922,-4.32994 -3.50922,-7.65814 l 0,-22.301949"
     id="u"
     style="fill:#b11107"
     inkscape:connector-curvature="0" />
  <path
     d="m 549.92165,110.84952 -19.95211,-23.441663 0,23.013483 -5.0201,0 0,-32.072179 2.14402,0 19.40192,22.156279 0,-22.156279 5.01753,0 0,32.500359 -1.59069,0"
     id="n"
     style="fill:#b11107"
     inkscape:connector-curvature="0" />
  <path
     d="m 605.68436,110.42134 -7.79669,0 0,-32.102967 c 4.97135,-0.137404 8.15018,-0.214088 9.54132,-0.214088 5.4078,0 9.68956,1.361783 12.84244,4.085065 3.15574,2.724137 4.73247,6.358506 4.73247,10.90282 0,11.55221 -6.44289,17.32889 -19.31954,17.32889 l 0,2.8e-4 z m -2.53143,-28.162718 0,24.038888 c 1.17734,0.13712 2.64289,0.20639 4.38724,0.20639 3.70022,0 6.60538,-1.14713 8.72345,-3.4505 2.10924,-2.30252 3.16999,-5.501011 3.16999,-9.594058 0,-7.619944 -4.11642,-11.437899 -12.34357,-11.437899 -0.49317,0 -1.80763,0.0841 -3.93711,0.237179"
     id="d"
     style="fill:#b11107"
     inkscape:connector-curvature="0" />
  <path
     d="m 691.45363,110.42134 -2.66256,-6.73309 -14.37613,0 -2.85384,6.73309 -5.93803,0 15.7305,-32.500641 1.40825,0 14.56712,32.500641 -5.87531,0 z m -9.6411,-24.115281 -5.99817,14.138661 11.4741,0 -5.47593,-14.138661"
     id="a"
     style="fill:#b11107"
     inkscape:connector-curvature="0" />
  <path
     d="m 731.06137,82.32761 0,-3.978449 30.41992,0 0,3.978449"
     id="t"
     style="fill:#b11107"
     inkscape:connector-curvature="0" />
  <path
     d="m 743.36361,78.349161 5.26526,0 0,32.072179 -5.26526,0 0,-32.072179 z"
     id="i"
     style="fill:#b11107"
     inkscape:connector-curvature="0" />
  <use
     transform="translate(61.92295,0)"
     id="i2"
     xlink:href="#i"
     x="0"
     y="0"
     width="3390.47"
     height="395.21899" />
  <use
     transform="translate(481.23325,0)"
     id="o2"
     xlink:href="#o"
     x="0"
     y="0"
     width="3390.47"
     height="395.21899" />
  <use
     transform="translate(407.73965,0)"
     id="n2"
     xlink:href="#n"
     x="0"
     y="0"
     width="3390.47"
     height="395.21899" />
</svg>
